<svg preserveAspectRatio="none" width="100%" height="100%" overflow="visible" style="display: block;" viewBox="0 0 24 24" fill="none" xmlns="http://www.w3.org/2000/svg">
<g id="contact_page_black_24dp" clip-path="url(#clip0_0_1562)">
<g id="Rectangle 573">
</g>
<path id="Path 6564" d="M13.17 4L18 8.83V20H6V4H13.17ZM14 2H6C5.47005 2.00158 4.96227 2.2128 4.58753 2.58753C4.2128 2.96227 4.00158 3.47005 4 4V20C4.00158 20.5299 4.2128 21.0377 4.58753 21.4125C4.96227 21.7872 5.47005 21.9984 6 22H18C18.5299 21.9984 19.0377 21.7872 19.4125 21.4125C19.7872 21.0377 19.9984 20.5299 20 20V8L14 2ZM12 14C12.3956 14 12.7822 13.8827 13.1111 13.6629C13.44 13.4432 13.6964 13.1308 13.8478 12.7654C13.9991 12.3999 14.0387 11.9978 13.9616 11.6098C13.8844 11.2219 13.6939 10.8655 13.4142 10.5858C13.1345 10.3061 12.7781 10.1156 12.3902 10.0384C12.0022 9.96126 11.6001 10.0009 11.2346 10.1522C10.8692 10.3036 10.5568 10.56 10.3371 10.8889C10.1173 11.2178 10 11.6044 10 12C10.0016 12.5299 10.2128 13.0377 10.5875 13.4125C10.9623 13.7872 11.4701 13.9984 12 14ZM16 17.43C16.0002 17.036 15.8847 16.6507 15.6678 16.3218C15.4509 15.9929 15.1422 15.735 14.78 15.58C13.9031 15.1974 12.9567 15 12 15C11.0433 15 10.0969 15.1974 9.22 15.58C8.85779 15.735 8.54907 15.9929 8.33218 16.3218C8.11529 16.6507 7.99978 17.036 8 17.43V18H16V17.43Z" fill="#FFFFFF"/>
</g>
<defs>
<clipPath id="clip0_0_1562">
<rect width="24" height="24" fill="white"/>
</clipPath>
</defs>
</svg>
