<svg width="24" height="24" viewBox="0 0 24 24" fill="none" xmlns="http://www.w3.org/2000/svg">
<path d="M15.8792 9.29081L11.9992 13.1708L8.11921 9.29081C7.92791 9.12699 7.68183 9.04138 7.43015 9.0511C7.17848 9.06082 6.93974 9.16515 6.76164 9.34325C6.58355 9.52134 6.47922 9.76008 6.4695 10.0118C6.45977 10.2634 6.54538 10.5095 6.70921 10.7008L11.2992 15.2908C11.4866 15.4771 11.74 15.5816 12.0042 15.5816C12.2684 15.5816 12.5218 15.4771 12.7092 15.2908L17.2992 10.7008C17.4855 10.5135 17.59 10.26 17.59 9.99581C17.59 9.73163 17.4855 9.47817 17.2992 9.29081C17.1093 9.10561 16.8545 9.00195 16.5892 9.00195C16.3239 9.00195 16.0691 9.10561 15.8792 9.29081Z" fill="#666666"/>
</svg>
