<svg width="24" height="24" viewBox="0 0 24 24" fill="none" xmlns="http://www.w3.org/2000/svg">
<path d="M15.8792 14.7092L11.9992 10.8292L8.11921 14.7092C7.92791 14.873 7.68183 14.9586 7.43015 14.9489C7.17848 14.9392 6.93974 14.8348 6.76164 14.6568C6.58355 14.4787 6.47922 14.2399 6.4695 13.9882C6.45977 13.7366 6.54538 13.4905 6.70921 13.2992L11.2992 8.70919C11.4866 8.52294 11.74 8.41839 12.0042 8.41839C12.2684 8.41839 12.5218 8.52294 12.7092 8.70919L17.2992 13.2992C17.4855 13.4865 17.59 13.74 17.59 14.0042C17.59 14.2684 17.4855 14.5218 17.2992 14.7092C17.1093 14.8944 16.8545 14.998 16.5892 14.998C16.3239 14.998 16.0691 14.8944 15.8792 14.7092Z" fill="#666666"/>
</svg>
