<svg width="14" height="14" viewBox="0 0 11.6667 10.5" fill="none" xmlns="http://www.w3.org/2000/svg">
  <!-- Figma node 354:16047 — Print Outline, #1565C0 -->
  <path d="M9.91667 2.91667C10.885 2.91667 11.6667 3.69833 11.6667 4.66667V8.16667H9.33333V10.5H2.33333V8.16667H0V4.66667C0 3.69833 0.781667 2.91667 1.75 2.91667H2.33333V0H9.33333V2.91667H9.91667ZM3.5 1.16667V2.91667H8.16667V1.16667H3.5ZM8.16667 9.33333V7H3.5V9.33333H8.16667ZM9.33333 7H10.5V4.66667C10.5 4.34583 10.2375 4.08333 9.91667 4.08333H1.75C1.42917 4.08333 1.16667 4.34583 1.16667 4.66667V7H2.33333V5.83333H9.33333V7ZM9.91667 4.95833C9.91667 5.27917 9.65417 5.54167 9.33333 5.54167C9.0125 5.54167 8.75 5.27917 8.75 4.95833C8.75 4.6375 9.0125 4.375 9.33333 4.375C9.65417 4.375 9.91667 4.6375 9.91667 4.95833Z" fill="#1565C0"/>
</svg>
